<?xml version="1.0" encoding="UTF-8" standalone="no"?>
<!DOCTYPE svg PUBLIC "-//W3C//DTD SVG 1.1//EN" "http://www.w3.org/Graphics/SVG/1.1/DTD/svg11.dtd">
<svg width="100%" height="100%" viewBox="0 0 699 773" version="1.1" xmlns="http://www.w3.org/2000/svg" xmlns:xlink="http://www.w3.org/1999/xlink" xml:space="preserve" xmlns:serif="http://www.serif.com/" style="fill-rule:evenodd;clip-rule:evenodd;stroke-linejoin:round;stroke-miterlimit:1.41421;">
    <g id="_432" serif:id="432" transform="matrix(0.429536,0,0,0.436851,268.417,343.65)">
        <path d="M900,638L900,580C900,555 880,535 855,535L779,535L116,535L116,683L855,683C880,683 900,663 900,638ZM110,770C85,770 64,790 64,815L64,873C64,898 85,918 110,918L889,918L889,770L855,770L110,770ZM1000,705L942,705C956,686 965,663 965,638L965,580C965,523 921,477 865,471C880,452 890,429 890,403L890,346C890,320 880,296 865,277L971,277L971,234L452,234L452,213L899,213L899,64L273,64C248,64 227,85 227,110L227,167C227,192 248,213 273,213L301,213L301,234L273,234C236,234 206,204 206,167L206,110C206,73 236,43 273,43L971,43L971,0L273,0C212,0 162,49 162,110L162,167C162,193 172,217 187,235L81,235L81,279L301,279L301,300L153,300L153,448L779,448C804,448 825,428 825,403L825,346C825,321 804,300 779,300L452,300L452,279L779,279C816,279 846,309 846,346L846,403C846,440 816,470 779,470L81,470L21,470L21,513L855,513C892,513 922,543 922,580L922,638C922,675 892,705 855,705L110,705L21,705L21,748L23,748C8,767 0,790 0,815L0,873C0,933 49,983 110,983L1000,983L1000,940L110,940C73,940 43,910 43,873L43,815C43,778 73,748 110,748L1000,748L1000,705ZM430,385L376,331L322,385L322,149L430,149L430,385Z" style="fill:rgb(152,74,89);fill-rule:nonzero;"/>
    </g>
    <g id="_324" serif:id="324" transform="matrix(0.32272,0,0,0.32858,266.896,0.287109)">
        <path d="M900,638L900,580C900,555 880,535 855,535L779,535L116,535L116,683L855,683C880,683 900,663 900,638ZM110,770C85,770 64,790 64,815L64,873C64,898 85,918 110,918L889,918L889,770L855,770L110,770ZM1000,705L942,705C956,686 965,663 965,638L965,580C965,523 921,477 865,471C880,452 890,429 890,403L890,346C890,320 880,296 865,277L971,277L971,234L452,234L452,213L899,213L899,64L273,64C248,64 227,85 227,110L227,167C227,192 248,213 273,213L301,213L301,234L273,234C236,234 206,204 206,167L206,110C206,73 236,43 273,43L971,43L971,0L273,0C212,0 162,49 162,110L162,167C162,193 172,217 187,235L81,235L81,279L301,279L301,300L153,300L153,448L779,448C804,448 825,428 825,403L825,346C825,321 804,300 779,300L452,300L452,279L779,279C816,279 846,309 846,346L846,403C846,440 816,470 779,470L81,470L21,470L21,513L855,513C892,513 922,543 922,580L922,638C922,675 892,705 855,705L110,705L21,705L21,748L23,748C8,767 0,790 0,815L0,873C0,933 49,983 110,983L1000,983L1000,940L110,940C73,940 43,910 43,873L43,815C43,778 73,748 110,748L1000,748L1000,705ZM430,385L376,331L322,385L322,149L430,149L430,385Z" style="fill:rgb(152,74,89);fill-rule:nonzero;"/>
    </g>
    <g id="_216" serif:id="216" transform="matrix(0.215175,0,0,0.217149,0.648438,311.322)">
        <path d="M900,638L900,580C900,555 880,535 855,535L779,535L116,535L116,683L855,683C880,683 900,663 900,638ZM110,770C85,770 64,790 64,815L64,873C64,898 85,918 110,918L889,918L889,770L855,770L110,770ZM1000,705L942,705C956,686 965,663 965,638L965,580C965,523 921,477 865,471C880,452 890,429 890,403L890,346C890,320 880,296 865,277L971,277L971,234L452,234L452,213L899,213L899,64L273,64C248,64 227,85 227,110L227,167C227,192 248,213 273,213L301,213L301,234L273,234C236,234 206,204 206,167L206,110C206,73 236,43 273,43L971,43L971,0L273,0C212,0 162,49 162,110L162,167C162,193 172,217 187,235L81,235L81,279L301,279L301,300L153,300L153,448L779,448C804,448 825,428 825,403L825,346C825,321 804,300 779,300L452,300L452,279L779,279C816,279 846,309 846,346L846,403C846,440 816,470 779,470L81,470L21,470L21,513L855,513C892,513 922,543 922,580L922,638C922,675 892,705 855,705L110,705L21,705L21,748L23,748C8,767 0,790 0,815L0,873C0,933 49,983 110,983L1000,983L1000,940L110,940C73,940 43,910 43,873L43,815C43,778 73,748 110,748L1000,748L1000,705ZM430,385L376,331L322,385L322,149L430,149L430,385Z" style="fill:rgb(152,74,89);fill-rule:nonzero;"/>
    </g>
    <g id="_162" serif:id="162" transform="matrix(0.161785,0,0,0.164681,0,127.295)">
        <path d="M900,638L900,580C900,555 880,535 855,535L779,535L116,535L116,683L855,683C880,683 900,663 900,638ZM110,770C85,770 64,790 64,815L64,873C64,898 85,918 110,918L889,918L889,770L855,770L110,770ZM1000,705L942,705C956,686 965,663 965,638L965,580C965,523 921,477 865,471C880,452 890,429 890,403L890,346C890,320 880,296 865,277L971,277L971,234L452,234L452,213L899,213L899,64L273,64C248,64 227,85 227,110L227,167C227,192 248,213 273,213L301,213L301,234L273,234C236,234 206,204 206,167L206,110C206,73 236,43 273,43L971,43L971,0L273,0C212,0 162,49 162,110L162,167C162,193 172,217 187,235L81,235L81,279L301,279L301,300L153,300L153,448L779,448C804,448 825,428 825,403L825,346C825,321 804,300 779,300L452,300L452,279L779,279C816,279 846,309 846,346L846,403C846,440 816,470 779,470L81,470L21,470L21,513L855,513C892,513 922,543 922,580L922,638C922,675 892,705 855,705L110,705L21,705L21,748L23,748C8,767 0,790 0,815L0,873C0,933 49,983 110,983L1000,983L1000,940L110,940C73,940 43,910 43,873L43,815C43,778 73,748 110,748L1000,748L1000,705ZM430,385L376,331L322,385L322,149L430,149L430,385Z" style="fill:rgb(152,74,89);fill-rule:nonzero;"/>
    </g>
    <g id="_108" serif:id="108" transform="matrix(0.108414,0,0,0.108463,0.416016,0)">
        <path d="M900,638L900,580C900,555 880,535 855,535L779,535L116,535L116,683L855,683C880,683 900,663 900,638ZM110,770C85,770 64,790 64,815L64,873C64,898 85,918 110,918L889,918L889,770L855,770L110,770ZM1000,705L942,705C956,686 965,663 965,638L965,580C965,523 921,477 865,471C880,452 890,429 890,403L890,346C890,320 880,296 865,277L971,277L971,234L452,234L452,213L899,213L899,64L273,64C248,64 227,85 227,110L227,167C227,192 248,213 273,213L301,213L301,234L273,234C236,234 206,204 206,167L206,110C206,73 236,43 273,43L971,43L971,0L273,0C212,0 162,49 162,110L162,167C162,193 172,217 187,235L81,235L81,279L301,279L301,300L153,300L153,448L779,448C804,448 825,428 825,403L825,346C825,321 804,300 779,300L452,300L452,279L779,279C816,279 846,309 846,346L846,403C846,440 816,470 779,470L81,470L21,470L21,513L855,513C892,513 922,543 922,580L922,638C922,675 892,705 855,705L110,705L21,705L21,748L23,748C8,767 0,790 0,815L0,873C0,933 49,983 110,983L1000,983L1000,940L110,940C73,940 43,910 43,873L43,815C43,778 73,748 110,748L1000,748L1000,705ZM430,385L376,331L322,385L322,149L430,149L430,385Z" style="fill:rgb(152,74,89);fill-rule:nonzero;"/>
    </g>
</svg>
